<svg width="66" height="66" viewBox="0 0 66 66" xmlns="http://www.w3.org/2000/svg" fill="#0c9"><path d="M61.875 0H16.5a4.123 4.123 0 0 0-4.125 4.125v6.188h-8.25A4.123 4.123 0 0 0 0 14.438v30.938a4.123 4.123 0 0 0 4.125 4.125h7.219c.57 0 1.031.461 1.031 1.031v11.344a4.119 4.119 0 0 0 2.546 3.81 4.123 4.123 0 0 0 4.495-.894l14.598-14.598s.532-.693 1.724-.693h15.824a4.123 4.123 0 0 0 4.125-4.125v-8.25h6.188A4.123 4.123 0 0 0 66 33.001V4.126A4.123 4.123 0 0 0 61.875.001zm-8.25 45.375c0 1.14-.923 2.063-2.063 2.063H35.738c-2.008 0-2.739 1.031-2.739 1.031L18.561 62.907c-2.208 2.208-4.125.403-4.125-1.031V49.501c0-1.14-.923-2.063-2.063-2.063h-8.25a2.062 2.062 0 0 1-2.063-2.063V14.437c0-1.14.923-2.063 2.063-2.063h47.438c1.14 0 2.063.923 2.063 2.063v30.938zM63.938 33c0 1.14-.923 2.063-2.063 2.063h-6.188V14.438a4.123 4.123 0 0 0-4.125-4.125H14.437V4.125c0-1.14.923-2.063 2.063-2.063h45.375c1.14 0 2.063.923 2.063 2.063V33zm-50.532-8.25h13.406a1.03 1.03 0 1 0 0-2.062H13.406a1.03 1.03 0 1 0 0 2.062zm28.875 4.125H13.406a1.03 1.03 0 1 0 0 2.062h28.875a1.03 1.03 0 1 0 0-2.062zm-7.218 6.188H13.407a1.03 1.03 0 1 0 0 2.062h21.656a1.03 1.03 0 1 0 0-2.062z" fill="#231F20"/></svg>